# Blender v3.0.0 OBJ File: 'Brique.blend'
# www.blender.org
mtllib MILK.mtl
o obj_0
v 84.000000 288.374298 54.043835
v 84.000000 299.488708 65.745041
v 84.000000 -0.000008 66.000000
v 86.282097 258.140411 22.300030
v 84.188004 299.481995 65.745041
v 84.000000 300.000000 66.000038
v 84.000000 299.488708 22.300035
v 84.000000 299.811890 22.300035
v 84.000000 300.000000 12.093336
v 84.000000 299.962006 11.784036
v 84.000000 300.000000 -63.999966
v 84.059998 299.317993 11.863336
v 84.000000 299.318115 11.863336
v 84.000000 299.318115 -63.999966
v -86.000000 0.000008 -64.000000
v -86.000000 299.481506 -63.999966
v 84.059998 299.317993 -63.999966
v 84.000000 274.047699 12.600033
v 84.000000 285.494995 12.600035
v 89.048401 226.600693 12.600027
v 88.264999 225.300003 12.600027
v 84.000000 285.494995 -49.438065
v 84.000000 285.494995 -49.438065
v 84.000000 0.000008 -64.000000
v 84.000000 287.787811 -51.853367
v 90.294403 226.599701 12.600027
v 91.153999 225.552994 12.600027
v 90.288002 226.599701 12.600027
v 91.153999 225.552994 22.300026
v 84.000000 299.811890 17.941536
v 84.017502 299.813385 17.954037
v 84.000000 300.000000 19.472736
v 84.000000 288.374298 22.300034
v 84.000000 274.047699 22.300032
v -86.000000 300.000000 65.668137
v -86.000000 300.000000 66.000038
v -85.481697 300.000000 65.745041
v -86.000000 -0.000008 66.000000
v -86.000000 300.000000 -63.999966
v 88.264999 225.300003 22.300026
v -87.300003 300.337006 22.216036
v 84.699997 300.337006 22.216036
v 84.699997 301.230011 22.106037
v 85.530098 258.167389 22.300030
v 84.081299 299.069000 11.894035
v 84.699997 299.069000 11.894035
v 84.699997 299.320404 12.600036
v 84.699997 299.155701 12.600036
v 84.073898 299.155701 12.600036
v -86.082649 272.066650 21.299891
v -88.454002 225.274994 21.300026
v -88.454002 225.274994 11.600027
v -86.000000 272.103394 11.600033
v -87.589302 257.688385 21.300030
v -85.673904 286.989166 21.282211
v -86.000000 277.138611 11.600034
v -88.694901 227.384995 11.600027
v -86.000000 277.138611 -40.694267
v -86.792534 299.906616 11.570846
v -92.734901 225.543533 11.669507
v -92.708679 225.554306 21.369465
v -86.766319 299.917389 21.270803
v -87.300003 299.917297 11.789536
v -87.300003 299.917297 18.799837
v -87.300003 299.962006 11.784036
v -87.300003 301.230011 22.106037
v -86.050102 299.967712 19.210035
v -86.043999 300.079987 20.123936
v -88.733055 299.805389 17.560589
v -86.056297 299.852112 19.210035
v -86.000000 299.849091 11.797935
v -86.000000 299.849091 11.600036
v -92.161812 257.824951 17.616486
v 84.699997 299.320404 13.940335
v 84.699997 299.962006 11.784036
v 84.652000 299.868988 18.406336
v 84.652000 299.868988 22.300035
v 84.188004 299.481995 22.300035
v -88.594391 300.082214 62.005104
v -91.254967 227.635788 11.663183
v -86.000000 300.000000 12.093336
v -86.000000 299.849091 18.244436
v -86.000000 299.962006 11.784036
v -85.391090 299.429077 11.567589
v -86.000000 299.967712 19.210035
v -86.000000 299.849091 19.210035
v -85.595428 299.345093 -64.032082
v -85.590538 287.023407 52.123684
v -87.622803 257.693207 21.300030
v -86.000000 299.481506 11.600036
v -85.481697 300.000000 19.472736
v -86.447937 299.414734 -64.029854
v -86.243599 299.498718 11.569816
v -92.107475 227.705414 11.665410
v 84.000000 300.000000 66.000038
v 84.000000 300.000000 12.093336
v 84.000000 300.000000 -63.999966
v 84.000000 300.000000 19.472736
v -85.481697 300.000000 65.745041
v -86.000000 300.000000 -63.999966
v -87.300003 300.337006 22.216036
v 84.699997 301.230011 22.106037
v -87.300003 301.230011 22.106037
v -86.000000 300.000000 12.093336
v -85.481697 300.000000 19.472736
vt 0.077666 0.962860
vt -0.009807 0.999933
vt -0.009807 0.000066
vt 0.000000 0.000000
vt 0.000000 0.000000
vt 0.000000 0.000000
vt 0.000000 0.000000
vt 0.000000 0.000000
vt 0.000000 0.000000
vt 0.000000 0.000000
vt 0.000000 0.000000
vt 0.000000 0.000000
vt 0.000000 0.000000
vt 0.000000 0.000000
vt 0.000000 0.000000
vt 0.000000 0.000000
vt 0.000000 0.000000
vt 0.994440 0.000075
vt 0.994440 0.999925
vt 0.010300 0.999379
vt 0.000000 0.000000
vt 0.000000 0.000000
vt 0.000000 0.000000
vt 0.000000 0.000000
vt 0.000000 0.000000
vt 0.000000 0.000000
vt 0.000000 0.000000
vt 0.961221 0.000436
vt 0.978710 0.999705
vt 0.887310 0.961528
vt 0.850636 0.953541
vt 0.010300 0.000075
vt 0.000000 0.000000
vt 0.000000 0.000000
vt 0.000000 0.000000
vt 0.000000 0.000000
vt 0.000000 0.000000
vt 0.000000 0.000000
vt 0.000000 0.000000
vt 0.000000 0.000000
vt 0.000000 0.000000
vt 0.000000 0.000000
vt 0.000000 0.000000
vt 0.000000 0.000000
vt 0.000000 0.000000
vt 0.264371 0.020179
vt 0.999098 0.020179
vt 0.999098 0.338406
vt 0.264371 0.338406
vt 1.004462 -0.005847
vt 0.001413 0.994003
vt 0.001412 -0.005847
vt 0.000000 0.000000
vt 0.000000 0.000000
vt 0.000000 0.000000
vt 0.000000 0.000000
vt 0.000000 0.000000
vt 0.000000 0.000000
vt 0.480567 0.464173
vt 0.457478 0.464173
vt 0.480567 0.416276
vt 0.458343 0.416260
vt 0.458037 0.394887
vt 0.542342 0.394499
vt 0.314866 0.915120
vt 1.004462 0.994003
vt 0.000000 0.000000
vt 0.387319 0.915147
vt 0.000000 0.000000
vt 0.000000 0.000000
vt 0.000000 0.000000
vt 0.000000 0.000000
vt 0.000000 0.000000
vt 0.644512 0.413369
vt 0.565039 0.413079
vt 0.644350 0.412583
vt 0.644512 0.365710
vt 0.000000 0.000000
vt 0.000000 0.000000
vt 0.000000 0.000000
vt 0.000000 0.000000
vt 0.000000 0.000000
vt 0.000000 0.000000
vt 0.000000 0.000000
vt 0.000000 0.000000
vt 0.000000 0.000000
vt 0.553013 0.415707
vt 0.423711 0.415905
vt 0.423666 0.406383
vt 0.552968 0.406185
vt 0.000000 0.000000
vt 0.000000 0.000000
vt 0.000000 0.000000
vt 0.000000 0.000000
vt 0.000000 0.000000
vt 0.000000 0.000000
vt 0.000000 0.000000
vt 0.000000 0.000000
vt 0.000000 0.000000
vt 0.000000 0.000000
vt 0.000000 0.000000
vt 0.000000 0.000000
vt 0.479957 0.405003
vt 0.552961 0.404818
vt 0.000000 0.000000
vt 0.000000 0.000000
vt 0.000000 0.000000
vt 0.646685 0.456627
vt 0.565642 0.455797
vt 0.646685 0.450615
vt 0.565642 0.456627
vt 0.565039 0.453028
vt 0.565039 0.450615
vt 0.000000 0.000000
vt 0.565039 0.432890
vt 0.597839 0.413392
vt 0.597839 0.450591
vt 0.000000 0.000000
vt 0.000000 0.000000
vt 0.553013 0.361186
vt 0.427536 0.417184
vt 0.000000 0.000000
vt 0.000000 0.000000
vt 0.000000 0.000000
vt 0.552388 0.417117
vt 0.000000 0.000000
vt 0.000000 0.000000
vt 0.000000 0.000000
vt 0.000000 0.000000
vt 0.000000 0.000000
vt 0.000000 0.000000
vt 0.000000 0.000000
vt 0.000000 0.000000
vt 0.000000 0.000000
vt 0.000000 0.000000
vt 0.000000 0.000000
vt 0.000000 0.000000
vt 0.000000 0.000000
vt 0.643879 0.914420
vt 0.571950 0.914420
vt 0.975343 0.007527
vt 0.011350 0.007527
vt 0.872578 0.964174
vt 0.184170 0.931202
vt 0.011351 1.005669
vt 0.553045 0.367571
vt 0.576334 0.361186
vt 0.576334 0.394824
vt 0.000000 0.000000
vt 0.972879 1.007395
vt 0.000000 0.000000
vt 0.542649 0.391664
vt 0.457351 0.392056
vt 0.457357 0.391213
vt 0.457351 0.416276
vt 0.542649 0.415872
vt 0.552388 0.417117
vt 0.427536 0.417184
vt 0.000000 0.000000
vt 0.552511 0.491335
vn 1.0000 -0.0000 0.0000
vn -0.0260 -0.7248 0.6885
vn -0.0259 -0.7248 0.6884
vn 1.0000 0.0003 0.0000
vn 1.0000 0.0002 0.0000
vn -0.0000 -0.1222 -0.9925
vn -0.0001 -0.1223 -0.9925
vn -0.0002 -0.1222 -0.9925
vn 0.0000 0.0000 -1.0000
vn 0.0020 1.0000 0.0000
vn -0.9963 -0.0854 0.0000
vn 0.0000 0.0000 1.0000
vn -0.0003 -0.7254 -0.6883
vn -0.0006 -0.7253 -0.6885
vn -0.0004 -0.7252 -0.6885
vn 0.0872 -0.9962 0.0000
vn -0.0000 -0.7255 -0.6882
vn -0.0015 -0.7253 -0.6885
vn -0.0014 -0.7253 -0.6885
vn -0.0023 -0.9925 0.1220
vn -0.0016 -0.9925 0.1220
vn -0.0000 -0.9925 0.1219
vn -0.0858 0.9963 -0.0000
vn -0.0851 0.9964 0.0000
vn -0.0872 0.9962 -0.0000
vn -0.0023 0.9999 0.0156
vn 0.0000 1.0000 0.0000
vn 0.0034 1.0000 0.0041
vn 0.0000 -1.0000 -0.0000
vn -0.9962 -0.0872 0.0000
vn 0.0000 0.1223 0.9925
vn 0.0000 0.9980 -0.0635
vn 0.0000 0.9981 -0.0624
vn -0.9987 -0.0506 0.0000
vn 0.0000 -0.1224 -0.9925
vn 0.0000 -0.1223 -0.9925
vn 0.9963 0.0854 -0.0000
vn 0.9964 0.0853 -0.0000
vn 0.9964 0.0851 0.0000
vn 0.9986 -0.0521 0.0072
vn 0.9987 -0.0506 0.0000
vn 0.9987 -0.0508 0.0011
vn 0.9986 -0.0523 0.0083
vn -0.0149 0.0016 0.9999
vn 0.0005 0.0007 1.0000
vn 0.0160 -0.0004 0.9999
vn -0.0152 0.0016 0.9999
vn -0.0093 -0.0011 -1.0000
vn -0.0185 0.0019 -0.9998
vn 0.9985 -0.0541 0.0000
vn -0.9968 0.0797 0.0026
vn -1.0000 0.0000 0.0000
vn 0.0000 -0.9925 0.1220
vn -0.0200 -0.9998 0.0001
vn -0.0050 -1.0000 0.0011
vn -0.0054 -1.0000 0.0011
vn -0.0210 -0.9998 0.0000
vn -0.0017 -0.9995 0.0311
vn 0.0547 0.9985 -0.0073
vn 0.0564 0.9983 -0.0122
vn 0.0542 0.9985 -0.0044
vn 0.0524 0.9986 0.0000
vn 0.0542 0.9985 0.0124
vn 0.0624 0.9956 0.0697
vn 0.8816 -0.0725 -0.4663
vn 0.8749 -0.0705 -0.4791
vn 0.8751 -0.0706 -0.4787
vn 0.8821 -0.0727 -0.4654
vn 0.9990 0.0453 0.0000
vn 0.9998 0.0218 0.0000
vn -0.0000 0.9925 -0.1219
vn 0.0000 0.9925 -0.1220
vn 0.0003 -0.9925 0.1219
vn 0.0006 -0.9925 0.1219
vn 0.9962 0.0872 0.0000
vn -0.0873 0.9962 -0.0000
vn 0.9987 0.0506 0.0000
vn 0.0357 0.9994 0.0000
vn -0.9986 0.0535 0.0001
vn 0.1320 0.9614 -0.2415
vn -0.0482 0.9973 -0.0563
vn 0.0417 0.9984 -0.0377
vn 0.0207 0.9998 0.0020
vn -0.9967 0.0814 0.0026
vn -0.0112 0.0049 -0.9999
vn 0.0054 0.0227 -0.9997
vn -0.0097 0.0016 -1.0000
vn 0.0000 -0.1221 -0.9925
vn 0.0524 0.9986 -0.0001
vn 0.0039 0.0182 -0.9998
vn -0.0001 0.0000 -1.0000
vn -0.0606 -0.7224 -0.6889
vn -0.0739 -0.7210 -0.6890
vn -0.0608 -0.7223 -0.6889
vn -0.0634 -0.9980 0.0003
vn -0.0626 -0.9980 0.0000
vn -0.0647 -0.9979 0.0009
vn 0.2859 0.6917 0.6632
vn -0.0530 -0.7230 -0.6889
vn -0.0875 -0.7195 -0.6890
vn 0.9979 -0.0652 -0.0026
vn -0.0655 -0.9979 0.0013
vn -0.6252 0.1006 0.7740
vn 0.0003 0.0021 1.0000
vn 0.0163 -0.0004 0.9999
vn -0.5145 -0.6000 0.6126
vn -0.3433 -0.6669 0.6614
vn -0.6821 -0.5349 0.4986
vn -0.1033 -0.7172 0.6892
vn -0.5836 -0.5711 0.5773
vn -0.6992 -0.5266 0.4834
vn 0.0536 0.9986 0.0000
vn 0.0680 0.9917 0.1094
vn 0.0532 0.0000 0.9986
vn 0.0469 0.1443 -0.9884
vn -0.3183 -0.9480 0.0000
vn -0.0857 -0.9963 0.0013
vn -0.0866 -0.9962 0.0013
vn -0.3195 -0.9476 0.0000
vn -1.0000 0.0067 0.0034
vn -1.0000 -0.0005 -0.0025
vn -1.0000 0.0001 -0.0000
vn -0.9999 0.0038 -0.0129
vn -0.9996 0.0274 0.0027
vn -0.9999 -0.0000 -0.0103
vn 0.0000 -0.9926 0.1218
vn 0.1408 0.9900 0.0000
vn 0.0027 0.0011 1.0000
vn 0.0814 0.9967 -0.0013
usemtl color_16448250
s 1
f 1/1/1 2/2/1 3/3/1
f 4/4/2 5/5/3 1/6/2
f 6/7/1 3/8/1 2/9/1
f 7/10/1 8/11/1 2/9/1
f 6/7/1 2/9/1 8/11/1
f 9/12/4 10/13/5 11/14/1
f 10/13/6 12/15/7 13/16/8
f 11/14/1 10/13/5 14/17/1
f 13/16/1 14/17/1 10/13/5
f 15/18/9 16/19/9 14/20/9
f 14/17/10 13/16/10 17/21/10
f 17/21/10 13/16/10 12/15/10
f 18/22/9 19/23/9 20/24/9
f 18/22/9 20/24/9 21/25/9
f 22/26/11 20/24/11 19/23/11
f 22/26/12 19/23/12 23/27/12
f 24/28/1 14/29/1 25/30/1
f 22/31/1 24/28/1 25/30/1
f 15/18/9 14/20/9 24/32/9
f 26/33/9 27/34/9 28/35/9
f 27/34/9 21/25/9 28/35/9
f 20/24/9 28/35/9 21/25/9
f 28/35/13 20/24/14 22/26/15
f 28/35/13 22/26/15 25/36/14
f 29/37/16 21/25/16 27/34/16
f 26/33/17 28/35/13 25/36/14
f 14/17/18 17/21/19 25/36/14
f 26/33/17 25/36/14 17/21/19
f 30/38/20 31/39/21 32/40/22
f 30/38/1 32/40/1 8/11/1
f 6/7/1 8/11/1 32/40/1
f 31/39/23 30/38/24 8/11/25
f 33/41/1 1/6/1 34/42/1
f 35/43/26 36/44/27 37/45/28
f 3/46/29 38/47/29 15/48/29
f 3/46/29 15/48/29 24/49/29
f 3/50/12 36/51/12 38/52/12
f 11/14/9 14/17/9 16/53/9
f 39/54/9 11/14/9 16/53/9
f 18/22/30 21/25/30 40/55/30
f 18/22/30 40/55/30 34/42/30
f 41/56/31 42/57/31 43/58/31
f 105/59/27 99/60/27 98/61/27
f 100/62/27 104/63/32 96/64/33
f 21/25/16 29/37/16 40/55/16
f 34/65/1 1/1/1 3/3/1
f 6/66/12 36/51/12 3/50/12
f 33/41/34 44/67/34 1/6/34
f 44/67/2 4/4/2 1/6/2
f 40/55/12 29/37/12 4/4/12
f 40/55/12 44/67/12 34/42/12
f 34/42/12 44/67/12 33/41/12
f 4/4/12 44/67/12 40/55/12
f 18/68/1 24/28/1 22/31/1
f 19/23/1 18/22/1 22/26/1
f 45/69/35 12/15/7 46/70/36
f 47/71/9 27/34/9 48/72/9
f 26/33/9 48/72/9 27/34/9
f 49/73/9 48/72/9 26/33/9
f 49/74/37 26/75/37 45/76/38
f 26/75/37 17/77/37 45/76/38
f 12/15/39 45/69/38 17/21/37
f 24/28/1 18/68/1 3/3/1
f 18/68/1 34/65/1 3/3/1
f 50/78/40 51/79/41 52/80/42
f 50/78/40 52/80/42 53/81/43
f 50/78/44 54/82/45 51/79/46
f 55/83/47 54/82/45 50/78/44
f 56/84/9 53/81/9 57/85/48
f 53/81/9 52/80/49 57/85/48
f 56/84/50 57/85/50 58/86/50
f 59/87/51 60/88/51 61/89/51
f 59/87/51 61/89/51 62/90/51
f 63/91/52 64/92/52 65/93/52
f 66/94/52 65/93/52 64/92/52
f 41/56/52 66/94/52 64/92/52
f 67/95/53 68/96/22 64/92/22
f 41/56/22 64/92/22 68/96/22
f 59/97/54 62/98/55 64/92/56
f 59/97/54 64/92/56 63/91/57
f 69/99/58 70/100/58 62/98/58
f 64/92/59 62/98/60 70/100/61
f 71/101/62 72/102/63 63/91/64
f 62/90/65 61/89/66 73/103/67
f 69/104/68 62/90/65 73/103/67
f 43/58/1 42/57/1 74/105/69
f 47/71/70 75/106/1 74/105/69
f 46/70/1 75/106/1 47/71/70
f 43/58/1 74/105/69 75/106/1
f 43/58/71 75/106/71 9/12/71
f 10/13/72 9/12/71 75/106/71
f 42/57/22 76/107/73 74/105/74
f 10/13/6 75/106/6 12/15/7
f 46/70/36 12/15/7 75/106/6
f 27/108/75 74/109/69 29/110/75
f 47/111/70 74/109/69 27/108/75
f 74/109/69 76/112/75 29/110/75
f 77/113/75 29/110/75 76/112/75
f 41/56/22 68/96/22 42/57/22
f 76/107/73 42/57/22 32/40/22
f 31/39/21 76/107/73 32/40/22
f 31/39/23 8/11/25 76/107/76
f 76/107/76 8/11/25 77/114/25
f 78/115/77 5/116/77 4/117/77
f 2/9/3 1/6/2 5/5/3
f 2/9/78 5/5/78 7/10/78
f 78/118/78 7/10/78 5/5/78
f 78/118/12 4/4/12 77/114/12
f 77/114/12 4/4/12 29/37/12
f 8/11/12 78/118/12 77/114/12
f 7/10/12 78/118/12 8/11/12
f 47/71/70 48/72/1 46/70/1
f 48/72/22 49/73/22 45/69/22
f 48/72/22 45/69/22 46/70/22
f 67/95/79 70/100/79 68/96/79
f 70/100/80 69/99/81 68/96/82
f 79/119/83 68/96/82 69/99/81
f 69/104/84 73/103/84 79/120/84
f 60/88/85 59/87/86 80/121/87
f 81/122/72 65/93/71 66/94/71
f 64/92/22 82/123/22 67/95/53
f 65/93/88 83/124/6 63/91/88
f 64/92/59 70/100/61 82/123/89
f 84/125/90 80/121/87 59/87/86
f 85/126/9 86/127/91 67/95/9
f 79/119/83 37/45/28 68/96/82
f 87/128/92 80/129/93 94/130/94 92/131/94
f 60/132/95 52/80/96 51/79/97
f 60/132/85 80/129/87 52/80/49
f 57/85/48 52/80/49 80/129/87
f 16/53/98 58/86/98 87/128/98
f 80/129/93 87/128/92 58/86/99
f 57/85/100 80/129/93 58/86/99
f 88/133/101 54/82/101 55/83/101
f 61/134/102 60/132/95 51/79/97
f 73/135/103 61/134/103 89/136/103
f 54/82/45 89/136/104 61/134/105
f 54/82/45 61/134/105 51/79/46
f 73/135/106 89/136/107 79/119/108
f 37/45/28 79/119/83 35/43/26
f 54/82/109 88/133/110 89/136/107
f 79/119/108 89/136/107 88/133/110
f 79/119/108 88/133/110 35/43/111
f 85/126/53 67/95/53 82/123/22
f 70/100/61 86/127/112 82/123/89
f 70/100/91 67/95/9 86/127/91
f 83/124/72 65/93/71 81/122/72
f 71/101/6 63/91/88 83/124/6
f 59/97/113 63/91/64 72/102/63
f 72/102/114 90/137/114 84/138/114
f 72/102/115 84/138/90 59/97/86
f 87/128/116 84/138/117 90/137/118
f 87/128/116 90/137/118 16/53/119
f 50/139/120 53/140/121 38/141/122
f 15/142/52 38/141/122 53/140/121
f 38/141/122 88/143/123 50/139/120
f 56/84/52 58/86/52 53/81/121
f 15/142/52 53/140/121 58/144/52
f 16/145/52 15/142/52 58/144/52
f 55/146/124 50/147/120 88/148/123
f 36/44/52 35/43/125 38/149/122
f 38/141/122 35/150/125 88/143/123
f 85/126/52 82/123/52 86/127/52
f 16/53/52 72/102/52 39/54/52
f 72/102/52 83/124/52 39/54/52
f 81/122/52 39/54/52 83/124/52
f 71/101/52 83/124/52 72/102/52
f 90/137/52 72/102/52 16/53/52
f 32/40/22 42/57/22 91/151/126
f 102/152/31 103/153/31 101/154/31
f 103/153/71 102/152/71 104/63/32
f 91/151/126 42/57/22 68/96/22
f 96/64/33 104/63/32 102/152/71
f 91/151/127 68/96/82 37/45/28
f 98/61/27 99/60/27 95/155/27
f 36/44/27 6/7/27 37/45/28
f 97/156/27 100/62/27 96/64/33
f 80/121/128 84/125/128 93/157/128 94/158/128
f 84/138/129 87/128/129 92/131/129 93/159/129
f 92/160/84 94/158/84 93/157/84
o obj_0.001
v 43.176998 300.000000 -11.116964
v 37.520000 301.049011 -13.843964
v 39.216999 300.000000 -15.076963
v 47.520000 301.049011 -6.578964
v 41.944000 301.049011 -9.419964
v 48.167999 300.000000 -8.573965
v 37.520000 318.950989 -13.843962
v 34.679001 301.049011 -19.419964
v 41.944000 318.950989 -9.419962
v 47.520000 318.950989 -6.578962
v 43.176998 320.000000 -11.116961
v 39.216999 320.000000 -15.076962
v 48.167999 320.000000 -8.573962
v 64.223000 300.000000 -11.116964
v 65.456001 301.049011 -9.419964
v 59.231998 300.000000 -8.573965
v 59.880001 301.049011 -6.578964
v 59.880001 318.950989 -6.578962
v 53.700001 318.950989 -5.599962
v 65.456001 318.950989 -9.419962
v 53.700001 301.049011 -5.599964
v 59.231998 320.000000 -8.573962
v 53.700001 320.000000 -7.697962
v 64.223000 320.000000 -11.116961
v 68.182999 320.000000 -15.076962
v 35.798000 300.000000 -25.599964
v 33.700001 301.049011 -25.599964
v 36.674000 300.000000 -31.131964
v 34.679001 301.049011 -31.779964
v 33.700001 318.950989 -25.599962
v 36.674000 300.000000 -20.067965
v 43.176998 320.000000 -40.082962
v 48.167999 320.000000 -42.625961
v 47.520000 318.950989 -44.620960
v 41.944000 318.950989 -41.779961
v 37.520000 318.950989 -37.355961
v 39.216999 320.000000 -36.122963
v 34.679001 318.950989 -31.779963
v 34.679001 318.950989 -19.419962
v 69.879997 301.049011 -13.843964
v 68.182999 300.000000 -15.076963
v 36.674000 320.000000 -31.131962
v 72.721001 301.049011 -19.419964
v 70.725998 300.000000 -20.067965
v 35.798000 320.000000 -25.599962
v 71.601997 300.000000 -25.599964
v 73.699997 301.049011 -25.599964
v 36.674000 320.000000 -20.067963
v 72.721001 301.049011 -31.779964
v 73.699997 318.950989 -25.599962
v 70.725998 300.000000 -31.131964
v 68.182999 300.000000 -36.122967
v 69.879997 301.049011 -37.355965
v 65.456001 301.049011 -41.779964
v 65.456001 318.950989 -41.779961
v 69.879997 318.950989 -37.355961
v 68.182999 320.000000 -36.122963
v 64.223000 320.000000 -40.082962
v 64.223000 300.000000 -40.082966
v 59.880001 301.049011 -44.620964
v 59.231998 300.000000 -42.625965
v 53.700001 300.000000 -43.501965
v 53.700001 301.049011 -45.599964
v 59.880001 318.950989 -44.620960
v 69.879997 318.950989 -13.843962
v 72.721001 318.950989 -19.419962
v 72.721001 318.950989 -31.779963
v 70.725998 320.000000 -20.067963
v 71.601997 320.000000 -25.599962
v 70.725998 320.000000 -31.131962
v 53.700001 300.000000 -7.697964
v 53.700001 318.950989 -45.599960
v 59.231998 320.000000 -42.625961
v 53.700001 320.000000 -43.501961
v 47.520000 301.049011 -44.620964
v 48.167999 300.000000 -42.625965
v 43.176998 300.000000 -40.082966
v 41.944000 301.049011 -41.779964
v 37.520000 301.049011 -37.355965
v 39.216999 300.000000 -36.122967
vn -0.1477 -0.9679 0.2033
vn -0.6990 -0.5035 0.5078
vn -0.2033 -0.9679 0.1477
vn -0.2670 -0.5035 0.8217
vn -0.5078 -0.5035 0.6990
vn -0.0776 -0.9679 0.2390
vn -0.6990 0.5035 0.5078
vn -0.8217 -0.5035 0.2670
vn -0.5078 0.5035 0.6990
vn -0.2670 0.5035 0.8217
vn -0.1477 0.9679 0.2033
vn -0.2033 0.9679 0.1477
vn -0.0776 0.9679 0.2390
vn 0.1477 -0.9679 0.2033
vn 0.5078 -0.5035 0.6990
vn 0.0776 -0.9679 0.2390
vn 0.2670 -0.5035 0.8217
vn 0.2670 0.5035 0.8217
vn 0.0000 0.5035 0.8639
vn 0.5078 0.5035 0.6990
vn 0.0000 -0.5036 0.8639
vn 0.0776 0.9679 0.2390
vn 0.0000 0.9679 0.2513
vn 0.1477 0.9679 0.2033
vn 0.2033 0.9679 0.1477
vn -0.2513 -0.9679 0.0000
vn -0.8639 -0.5036 0.0000
vn -0.2390 -0.9679 -0.0776
vn -0.8217 -0.5035 -0.2670
vn -0.8639 0.5036 0.0000
vn -0.2390 -0.9679 0.0776
vn -0.1477 0.9679 -0.2033
vn -0.0776 0.9679 -0.2390
vn -0.2670 0.5035 -0.8217
vn -0.5078 0.5035 -0.6990
vn -0.6990 0.5035 -0.5078
vn -0.2033 0.9679 -0.1477
vn -0.8217 0.5035 -0.2670
vn -0.8217 0.5035 0.2670
vn 0.6990 -0.5035 0.5078
vn 0.2033 -0.9679 0.1477
vn -0.2390 0.9679 -0.0776
vn 0.8217 -0.5035 0.2670
vn 0.2390 -0.9679 0.0776
vn -0.2513 0.9679 0.0000
vn 0.2513 -0.9679 0.0000
vn 0.8639 -0.5036 0.0000
vn -0.2390 0.9679 0.0776
vn 0.8217 -0.5035 -0.2670
vn 0.8639 0.5036 0.0000
vn 0.2390 -0.9679 -0.0776
vn 0.2033 -0.9679 -0.1477
vn 0.6990 -0.5035 -0.5078
vn 0.5078 -0.5035 -0.6990
vn 0.5078 0.5035 -0.6990
vn 0.6990 0.5035 -0.5078
vn 0.2033 0.9679 -0.1477
vn 0.1477 0.9679 -0.2033
vn 0.1477 -0.9679 -0.2033
vn 0.2670 -0.5035 -0.8217
vn 0.0776 -0.9679 -0.2390
vn 0.0000 -0.9679 -0.2513
vn 0.0000 -0.5036 -0.8639
vn 0.2670 0.5035 -0.8217
vn 0.6990 0.5035 0.5078
vn 0.8217 0.5035 0.2670
vn 0.8217 0.5035 -0.2670
vn 0.2390 0.9679 0.0776
vn 0.2513 0.9679 0.0000
vn 0.2390 0.9679 -0.0776
vn 0.0000 -0.9679 0.2513
vn 0.0000 0.5035 -0.8639
vn 0.0776 0.9679 -0.2390
vn 0.0000 0.9679 -0.2513
vn -0.2670 -0.5035 -0.8217
vn -0.0776 -0.9679 -0.2390
vn -0.1477 -0.9679 -0.2033
vn -0.5078 -0.5035 -0.6990
vn -0.6990 -0.5035 -0.5078
vn -0.2033 -0.9679 -0.1477
usemtl color_40919
s 1
f 106//130 107//131 108//132
f 109//133 110//134 106//130
f 111//135 109//133 106//130
f 107//131 112//136 113//137
f 114//138 112//136 110//134
f 107//131 110//134 112//136
f 114//138 110//134 115//139
f 109//133 115//139 110//134
f 112//136 114//138 116//140
f 112//136 116//140 117//141
f 115//139 118//142 114//138
f 118//142 116//140 114//138
f 119//143 120//144 121//145
f 120//144 122//146 121//145
f 122//146 123//147 124//148
f 120//144 125//149 123//147
f 120//144 123//147 122//146
f 109//133 126//150 115//139
f 123//147 127//151 124//148
f 124//148 127//151 128//152
f 129//153 127//151 123//147
f 125//149 129//153 123//147
f 130//154 129//153 125//149
f 128//152 118//142 115//139
f 128//152 115//139 124//148
f 131//155 132//156 133//157
f 132//156 134//158 133//157
f 113//137 132//156 131//155
f 135//159 132//156 113//137
f 136//160 113//137 131//155
f 137//161 138//162 139//163
f 140//164 137//161 139//163
f 140//164 141//165 142//166
f 140//164 142//166 137//161
f 132//156 135//159 134//158
f 134//158 135//159 143//167
f 144//168 135//159 113//137
f 113//137 112//136 144//168
f 145//169 120//144 146//170
f 119//143 146//170 120//144
f 147//171 141//165 143//167
f 148//172 145//169 146//170
f 147//171 142//166 141//165
f 149//173 148//172 146//170
f 150//174 147//171 143//167
f 135//159 150//174 143//167
f 151//175 152//176 149//173
f 144//168 153//177 135//159
f 152//176 148//172 149//173
f 154//178 152//176 151//175
f 153//177 150//174 135//159
f 148//172 152//176 155//179
f 154//178 155//179 152//176
f 144//168 117//141 153//177
f 156//180 154//178 151//175
f 117//141 144//168 112//136
f 108//132 107//131 136//160
f 107//131 113//137 136//160
f 106//130 110//134 107//131
f 157//181 158//182 156//180
f 159//183 158//182 157//181
f 160//184 161//185 158//182
f 161//185 160//184 162//186
f 163//187 162//186 160//184
f 157//181 164//188 159//183
f 165//189 159//183 164//188
f 159//183 165//189 160//184
f 166//190 165//189 164//188
f 167//191 168//192 166//190
f 166//190 168//192 165//189
f 158//182 159//183 160//184
f 160//184 165//189 169//193
f 154//178 156//180 158//182
f 145//169 170//194 125//149
f 125//149 120//144 145//169
f 170//194 145//169 171//195
f 148//172 171//195 145//169
f 155//179 171//195 148//172
f 154//178 172//196 155//179
f 161//185 172//196 154//178
f 161//185 154//178 158//182
f 170//194 130//154 125//149
f 171//195 173//197 170//194
f 173//197 130//154 170//194
f 174//198 173//197 171//195
f 155//179 174//198 171//195
f 172//196 175//199 155//179
f 155//179 175//199 174//198
f 162//186 175//199 172//196
f 161//185 162//186 172//196
f 122//146 126//150 176//200
f 126//150 111//135 176//200
f 126//150 109//133 111//135
f 122//146 124//148 126//150
f 124//148 115//139 126//150
f 121//145 122//146 176//200
f 177//201 169//193 168//192
f 165//189 168//192 169//193
f 139//163 177//201 168//192
f 169//193 178//202 160//184
f 178//202 163//187 160//184
f 179//203 178//202 169//193
f 177//201 179//203 169//193
f 139//163 138//162 177//201
f 138//162 179//203 177//201
f 180//204 168//192 167//191
f 180//204 167//191 181//205
f 182//206 183//207 181//205
f 183//207 180//204 181//205
f 184//208 183//207 185//209
f 182//206 185//209 183//207
f 185//209 134//158 184//208
f 183//207 184//208 141//165
f 134//158 143//167 141//165
f 184//208 134//158 141//165
f 134//158 185//209 133//157
f 180//204 139//163 168//192
f 180//204 183//207 140//164
f 180//204 140//164 139//163
f 183//207 141//165 140//164
f 156//180 151//175 157//181
f 164//188 151//175 166//190
f 166//190 151//175 167//191
f 157//181 151//175 164//188
f 149//173 146//170 167//191
f 182//206 181//205 185//209
f 133//157 185//209 181//205
f 119//143 121//145 167//191
f 149//173 167//191 151//175
f 176//200 111//135 167//191
f 121//145 176//200 167//191
f 146//170 119//143 167//191
f 133//157 181//205 131//155
f 136//160 131//155 181//205
f 106//130 181//205 111//135
f 108//132 181//205 106//130
f 136//160 181//205 108//132
f 181//205 167//191 111//135
f 163//187 178//202 130//154
f 116//140 118//142 138//162
f 138//162 118//142 179//203
f 129//153 130//154 178//202
f 142//166 116//140 137//161
f 162//186 163//187 130//154
f 175//199 130//154 174//198
f 173//197 174//198 130//154
f 175//199 162//186 130//154
f 129//153 178//202 127//151
f 127//151 179//203 128//152
f 178//202 179//203 127//151
f 116//140 150//174 117//141
f 150//174 116//140 147//171
f 153//177 117//141 150//174
f 138//162 137//161 116//140
f 147//171 116//140 142//166
f 128//152 179//203 118//142
